<?xml  version="1.0" encoding="UTF-8"?>
<!DOCTYPE svg PUBLIC "-//W3C//DTD SVG 1.0//EN" "http://www.w3.org/TR/2001/REC-SVG-20010904/DTD/svg10.dtd" >
<svg xmlns="http://www.w3.org/2000/svg" >
<metadata>
<version>1.0</version>
<id><![CDATA[Swift Neue LT W01 Light]]></id>
<vendor>Monotype Imaging Inc.</vendor>
<credits>
<name>Fonts.com WebFonts</name>
<URL>http://webfonts.fonts.com</URL>
<role>Home of the Web fonts</role>
</credits>
<license>
<URL>http://webfonts.fonts.com/Legal</URL>
</license>
<copyright><![CDATA[Copyright © 2009 Linotype GmbH, www.linotype.com. All rights reserved. This font software may not be reproduced, modified, disclosed or transferred without the express written approval of Linotype GmbH. Swift is a trademark of Linotype GmbH and may be registered in certain jurisdictions. This typeface is original artwork of Gerard Unger. The design may be protected in certain jurisdictions.]]></copyright>
<trademark><![CDATA[Swift is a trademark of Linotype GmbH and may be registered in certain jurisdictions.]]></trademark>
<licensee>
<name></name>
</licensee>
</metadata>
<defs >
<font horiz-adv-x="447" id="a3756a61-219f-4792-a776-c4e3b047464f">
<font-face font-family="" panose-1="2 10 3 3 7 4 6 2 2 4" ascent="893" descent="-238" units-per-em="1000" alphabetic="0">
</font-face>
<missing-glyph horiz-adv-x="271" />

<glyph unicode="&#xA;" />
<glyph unicode="&#xD;" horiz-adv-x="483" />
<glyph unicode=" " horiz-adv-x="271" />
<glyph unicode="!" horiz-adv-x="251" d="M142 168H104L62 678H184L142 168ZM180 47Q180 -4 126 -4Q65 -4 65 46Q65 99 126 99Q153 99 166 87T180 47Z"  />
<glyph unicode="&quot;" horiz-adv-x="359" d="M293 650Q293 647 293 643T290 622L269 467H239L217 622Q215 636 215 640T214 650Q214 669 224 678T253 688Q293 688 293 650ZM142 650Q142 645 142 639T140 622L119 467H88L67 622Q65 636 65 640T64 650Q64 688 103 688Q142 688 142 650Z"  />
<glyph unicode="#" horiz-adv-x="621" d="M584 403H465L437 255H554L543 197H425L385 0H325L362 197H211L171 0H110L149 197H31L42 255H160L190 403H71L83 461H201L241 659H302L263 461H414L454 659H516L477 461H595L584 403ZM251 403L222 255H375L404 403H251Z"  />
<glyph unicode="$" horiz-adv-x="511" d="M457 159Q457 119 442 90T397 38Q373 19 341 7T269 -9V-69H231V-10Q222 -10 209 -9T180 -6T150 -2T122 4Q106 8 96 10T80 13T68 16T54 20V157H88L138 42Q171 36 214 36Q219 36 223 36T231 37V288L173 324Q153 336 138 346T112 365T93 384T77 406Q67 423 63 443T58 485Q58 515 69 542T103 592T157 629T231 647V707H269V648Q286 647 308 645T356 638Q379 634 395 631T437 623V492H401L353 601Q332 604 320 605T293 606Q287 606 281 606T269 605V370L334 331Q362 315 384 299T423 262T448 217T457 159ZM231 601Q213 598 196 592T166 574T144 547T136 509Q136 487 144 470T165 440T193 416T224 397L231 393V601ZM365 144Q365 167 358 183T339 213T311 238T274 262L269 265V40Q285 42 296 45T319 56Q342 70 353 93T365 144Z"  />
<glyph unicode="%" horiz-adv-x="621" d="M324 547Q324 515 313 488T281 440T234 409T175 397Q143 397 116 407T70 436T41 481T30 539Q30 572 41 599T71 645T118 676T178 687Q244 687 284 649T324 547ZM112 0H56L528 683H584L112 0ZM591 141Q591 109 580 82T549 34T502 3T442 -9Q409 -9 383 1T337 30T308 75T297 133Q297 199 337 240T445 281Q511 281 551 243T591 141ZM267 544Q267 592 244 617T177 643Q133 643 110 617T86 540Q86 494 109 468T174 441Q218 441 242 468T267 544ZM535 138Q535 186 511 212T444 238Q400 238 377 211T353 134Q353 88 376 62T441 36Q484 36 509 63T535 138Z"  />
<glyph unicode="&amp;" horiz-adv-x="694" d="M588 329V295Q588 230 573 186T518 97L554 57L633 24V0H493L457 42Q434 29 414 21T373 7T331 -1T284 -4Q228 -4 183 9T107 45T58 101T40 174Q40 223 71 263T182 340L138 392Q118 417 110 444T101 502Q101 535 113 562T146 609T198 640T266 651Q332 651 372 617T413 526Q413 475 381 432T277 358L490 127Q507 149 517 187T528 273V329L453 358V383H669V358L588 329ZM339 529Q339 567 317 590T260 614Q220 614 197 591T173 528Q173 499 190 467T237 403L258 380Q279 398 288 407T306 428Q322 449 330 476T339 529ZM202 318Q163 289 145 257T127 181Q127 114 171 76T295 37Q337 37 373 46T430 72L202 318Z"  />
<glyph unicode="&apos;" horiz-adv-x="206" d="M142 650Q142 645 142 640T140 622L119 467H88L67 622Q65 636 65 640T64 650Q64 688 103 688Q142 688 142 650Z"  />
<glyph unicode="(" horiz-adv-x="263" d="M195 -222Q44 -36 44 245Q44 319 52 381T79 500T125 608T195 715L221 696Q190 645 171 591T140 480T124 365T120 247Q120 187 124 129T139 14T170 -98T221 -206L195 -222Z"  />
<glyph unicode=")" horiz-adv-x="263" d="M218 247Q218 173 210 111T184 -8T138 -116T68 -222L42 -204Q73 -153 92 -99T123 13T139 128T143 245Q143 305 139 363T124 479T93 590T42 698L68 715Q218 529 218 247Z"  />
<glyph unicode="*" horiz-adv-x="321" d="M201 566L289 490L254 460L178 547L184 434H140L145 550L70 460L36 490L124 566L14 554V604L124 592L37 667L70 697L145 609L140 726H184L178 608L254 698L289 667L201 592L309 604V554L201 566Z"  />
<glyph unicode="+" horiz-adv-x="547" d="M311 295V71H236V295H19V367H236V569H311V367H527V295H311Z"  />
<glyph unicode="&#x2c;" horiz-adv-x="268" d="M200 36Q200 0 190 -25T156 -71Q129 -95 91 -107L80 -79Q116 -63 129 -44T145 12H133Q68 12 68 62Q68 85 84 100T127 115Q200 115 200 36Z"  />
<glyph unicode="-" horiz-adv-x="241" d="M10 223V298H232V223H10Z"  />
<glyph unicode="." horiz-adv-x="238" d="M176 46Q176 15 163 3T120 -10Q88 -10 75 3T61 46Q61 78 74 90T119 102Q149 102 162 89T176 46Z"  />
<glyph unicode="/" horiz-adv-x="252" d="M65 -238H0L188 738H252L65 -238Z"  />
<glyph unicode="0" horiz-adv-x="528" d="M489 323Q489 244 473 182T427 76T355 9T259 -15Q215 -15 181 0T123 40T83 100T58 171T44 246T40 319Q40 397 56 460T101 566T173 633T269 657Q336 657 378 625T445 543T479 434T489 323ZM396 326Q396 405 387 459T361 547T321 596T271 611Q238 611 216 595T178 553T153 495T140 429T134 366T132 315Q132 236 141 182T167 94T207 45T257 30Q290 30 312 46T350 88T375 146T388 212T394 275T396 326Z"  />
<glyph unicode="1" horiz-adv-x="415" d="M93 0V24L199 59V540L19 505V533Q51 543 89 558T166 592Q192 605 213 618T262 651H283V59L391 24V0H93Z"  />
<glyph unicode="2" horiz-adv-x="530" d="M467 0H44V34Q73 64 101 93T159 151Q180 172 202 195T244 241T283 287T314 331Q339 370 349 401T360 467Q360 534 324 571T220 609Q203 609 188 608T152 602L111 485H78V622L140 636Q187 646 211 648T253 651Q299 651 337 639T402 605T445 552T461 483Q461 452 455 426T431 369T379 302T289 210Q272 193 256 178T223 147T186 112T141 71H392L444 173H480L467 0Z"  />
<glyph unicode="3" horiz-adv-x="509" d="M470 182Q470 140 452 106T400 47T318 9T210 -4Q188 -4 170 -2T123 6Q107 9 94 12T70 19Q59 23 49 27V165H82L130 47Q144 45 158 44T195 43Q228 43 260 50T317 73T359 116T375 181Q375 242 335 278T225 315H192V358H230Q251 358 273 366T313 391T342 432T354 490Q354 547 321 578T221 609Q212 609 201 609T178 608T156 607T140 605L93 487H61V622Q70 624 80 627Q88 629 99 631T123 637Q145 641 162 644T193 648T219 651T246 652Q341 652 395 613T449 504Q449 447 408 402T286 340Q313 339 345 331T404 304T451 255T470 182Z"  />
<glyph unicode="4" horiz-adv-x="528" d="M410 203V58L498 25V0H242V25L330 58V203H8V231L375 651H410V265H508V203H410ZM329 526L100 265H329V526Z"  />
<glyph unicode="5" horiz-adv-x="508" d="M463 228Q463 177 445 135T393 61T313 13T211 -4Q191 -4 170 -1T128 7Q107 12 89 17T54 27V165H86L135 49Q171 43 201 43Q280 43 327 87T374 206Q374 366 185 366Q155 366 127 362T72 349V640H442V565H122V405Q141 411 156 414T183 419T206 421T230 422Q339 422 401 371T463 228Z"  />
<glyph unicode="6" horiz-adv-x="535" d="M496 198Q496 147 479 108T433 41T364 -1T277 -15Q223 -15 178 5T102 64Q44 140 44 282Q44 324 51 364T72 439T104 503T143 554Q190 601 246 626T378 652Q409 652 438 647T493 636L488 601Q468 603 453 603T430 604Q345 604 281 572T180 480Q163 454 156 425T143 354Q174 369 217 378T302 388Q346 388 382 375T443 337T482 277T496 198ZM410 187Q410 256 370 295T260 335Q229 335 199 330T139 320Q137 303 137 292T137 265Q137 232 141 191T161 113T204 53T279 28Q341 28 375 69T410 187Z"  />
<glyph unicode="7" horiz-adv-x="488" d="M480 601Q410 445 338 293T185 -12H108Q191 131 267 276T416 571H122L76 458H40V640H480V601H480Z"  />
<glyph unicode="8" horiz-adv-x="521" d="M476 176Q476 134 462 99T420 39T349 -1T252 -15Q216 -15 179 -6T112 24T63 75T44 149Q44 209 86 254T206 326L184 339Q125 372 100 407T75 490Q75 526 88 556T127 607T186 639T262 651Q345 651 393 613T442 510Q442 462 416 424T321 356L353 339Q413 307 444 269T476 176ZM366 503Q366 553 337 583T261 613Q213 613 182 586T150 515Q150 481 171 456T234 407L290 375Q329 401 347 434T366 503ZM400 149Q400 165 397 179T385 206T361 233T321 261L240 307Q177 276 149 237T121 150Q121 121 132 100T162 64T206 42T258 34Q322 34 361 64T400 149Z"  />
<glyph unicode="9" horiz-adv-x="536" d="M492 354Q492 312 485 272T464 197T433 133T394 82Q347 35 291 10T159 -15Q128 -15 99 -10T44 1L49 36Q69 34 84 34T107 33Q192 33 256 64T357 156Q373 182 381 212T394 283Q362 268 319 258T234 248Q190 248 155 261T94 300T54 360T40 439Q40 490 57 529T103 596T173 638T260 652Q314 652 359 632T434 573Q492 499 492 354ZM400 372Q400 405 395 446T375 524T332 584T258 609Q196 609 162 568T127 449Q127 380 167 341T277 301Q308 301 338 306T398 317Q400 334 400 345T400 372Z"  />
<glyph unicode=":" horiz-adv-x="265" d="M191 438Q191 406 179 394T136 382Q104 382 91 394T77 438Q77 468 90 481T135 494Q166 494 178 481T191 438ZM191 46Q191 15 179 3T136 -9Q104 -9 91 4T77 46Q77 77 90 89T135 102Q166 102 178 89T191 46Z"  />
<glyph unicode=";" horiz-adv-x="268" d="M187 438Q187 406 175 394T132 382Q100 382 86 394T72 438Q72 468 85 481T131 494Q161 494 174 481T187 438ZM200 36Q200 -18 176 -53T91 -107L80 -79Q116 -63 129 -44T145 12Q142 11 139 11T133 11Q68 11 68 62Q68 85 84 100T127 115Q200 115 200 36Z"  />
<glyph unicode="&lt;" horiz-adv-x="652" d="M35 304V330L603 571V496L165 317L603 138V63L35 304Z"  />
<glyph unicode="=" horiz-adv-x="541" d="M19 380V448H522V380H19ZM19 184V253H522V184H19Z"  />
<glyph unicode="&gt;" horiz-adv-x="652" d="M49 63V138L488 317L49 496V571L618 328V304L49 63Z"  />
<glyph unicode="?" horiz-adv-x="411" d="M403 498Q403 472 399 450T384 408T357 367T315 325L256 272Q243 260 234 253T220 238T212 220T209 194V158H168L163 197Q162 205 162 211T161 224Q161 234 162 242T168 258T181 276T202 300L253 355Q285 389 296 420T308 496Q308 559 272 595T173 632Q147 632 127 630T94 625L45 505H11V643Q23 646 30 647T43 650T57 653T77 658Q98 662 114 665T144 671T170 674T197 675Q297 675 350 626T403 498ZM248 49Q248 23 234 10T188 -4Q159 -4 143 9T127 48Q127 99 188 99Q248 99 248 49Z"  />
<glyph unicode="@" horiz-adv-x="783" d="M744 281Q744 218 725 165T671 74T591 15T491 -6Q470 -6 455 0T440 31Q440 39 442 52T446 75L453 125Q437 107 427 95T410 74T396 59T380 44Q351 21 329 9T286 -4Q248 -4 226 31T204 131Q204 191 222 248T273 345Q345 434 467 434Q487 434 507 432T557 423L510 41Q522 41 529 42T541 45Q565 52 588 70T630 116T660 181T672 266Q672 324 655 370T605 448T525 498T417 516Q336 516 279 491T184 419T130 311T112 174Q112 105 134 52T196 -36T290 -89T411 -107Q450 -107 487 -103T562 -90L570 -122L505 -141Q467 -152 437 -156T381 -161Q310 -161 248 -143T140 -86T67 10T40 147Q40 232 65 309T140 444T261 536T427 570Q495 570 553 551T653 495T720 404T744 281ZM483 381Q469 386 456 388T429 390Q351 390 315 308Q301 277 294 229T286 133Q286 93 293 76T315 58Q324 58 335 66T379 98L455 155L483 381Z"  />
<glyph unicode="A" horiz-adv-x="651" d="M414 0V24L495 62L417 278H198L117 62L196 24V0H-27V24L53 62L309 684H361L583 62L662 24V0H414ZM345 487L314 581L212 316H402L345 487Z"  />
<glyph unicode="B" horiz-adv-x="576" d="M531 174Q531 139 517 105T478 49Q452 26 415 13T314 0H24V24L112 59V621L24 656V680H297Q350 680 383 672T442 643Q470 621 485 588T500 518Q500 474 479 438T417 379Q398 368 380 362T329 350Q350 349 366 347T396 342T422 333T449 319Q492 293 511 259T531 174ZM405 507Q405 565 373 603T279 641H197V365H277Q305 365 328 377T369 410T395 456T405 507ZM437 178Q437 244 393 284T276 324H197V39H279Q359 39 398 71T437 178Z"  />
<glyph unicode="C" horiz-adv-x="640" d="M594 25Q558 15 535 11T488 1Q461 -4 434 -7T378 -10Q331 -10 293 -5T225 10T169 38T121 80Q40 170 40 316Q40 394 62 465T131 588Q180 642 248 666T413 690Q464 690 506 683T600 668V517H567L516 642Q499 644 479 646T431 648Q355 648 300 629T207 569Q167 527 147 468T127 333Q127 206 190 127Q227 83 279 64T415 44Q427 44 435 44T453 44T475 46T507 48L577 174H606L594 25Z"  />
<glyph unicode="D" horiz-adv-x="706" d="M667 356Q667 262 633 185T534 60Q491 28 438 14T310 0H24V24L112 59V621L24 656V680H326Q377 680 416 675T486 659T543 629T592 583Q667 495 667 356ZM579 349Q579 467 524 546Q489 594 441 615T322 636H196V44H304Q338 44 364 47T413 59T455 81T495 115Q538 159 558 215T579 349Z"  />
<glyph unicode="E" horiz-adv-x="566" d="M506 0H24V24L112 59V621L24 656V680H502V530H468L420 641H196V364H386L420 456H450V235H420L386 326H196V44H425L488 156H523L506 0Z"  />
<glyph unicode="F" horiz-adv-x="487" d="M442 536L395 641H195V364H358L395 456H425V235H395L358 326H195V59L303 24V0H24V24L111 59V621L24 656V680H477V536H442Z"  />
<glyph unicode="G" horiz-adv-x="694" d="M595 217V27Q560 17 536 12T488 1Q456 -5 428 -7T367 -10Q328 -10 291 -3T222 17T162 48T115 90Q77 136 59 196T40 326Q40 412 67 482T148 603Q196 648 259 669T410 690Q460 690 510 683T606 666V517H572L523 640Q503 643 486 646T441 649Q358 649 305 631T211 572Q127 485 127 336Q127 279 138 234T175 151Q212 94 267 69T408 44Q435 44 465 45T511 50V217L424 250V274H684V250L595 217Z"  />
<glyph unicode="H" horiz-adv-x="724" d="M439 0V24L528 59V331H196V59L283 24V0H24V24L112 59V622L24 656V680H283V656L196 622V380H528V622L439 656V680H699V656L611 622V59L699 24V0H439Z"  />
<glyph unicode="I" horiz-adv-x="307" d="M24 0V24L112 59V621L24 656V680H283V656L196 621V59L283 24V0H24Z"  />
<glyph unicode="J" horiz-adv-x="305" d="M212 622V-9Q212 -64 198 -103T153 -175Q121 -207 86 -220T-5 -234Q-24 -234 -41 -232T-69 -228V-133H-2L31 -198Q60 -196 79 -182T109 -148T124 -104T128 -59V622L41 656V680H300V656L212 622Z"  />
<glyph unicode="K" horiz-adv-x="606" d="M467 0L208 361L443 627L372 656V680H597V656L524 621L287 388L534 59L610 24V0H467ZM24 0V24L112 59V621L24 656V680H283V656L196 621V59L283 24V0H24Z"  />
<glyph unicode="L" horiz-adv-x="489" d="M468 0H24V24L112 59V621L24 656V680H283V656L196 621V44H387L452 172H484L468 0Z"  />
<glyph unicode="M" horiz-adv-x="849" d="M567 0V24L654 59V576L416 -11H397L162 576V59L252 24V0H24V24L111 59V621L24 656V680H207L423 136L645 680H822V656L734 621V59L822 24V0H567Z"  />
<glyph unicode="N" horiz-adv-x="721" d="M622 621V-10H599L163 575V59L252 24V0H24V24L112 59V621L24 656V680H187L571 172V621L483 656V680H710V656L622 621Z"  />
<glyph unicode="O" horiz-adv-x="703" d="M664 349Q664 268 641 201T575 86T473 12T343 -15Q274 -15 218 8T123 75T62 180T40 319Q40 391 60 457T120 576T219 659T358 690Q434 690 491 663T587 590T645 481T664 349ZM572 334Q572 381 562 436T527 537T458 615T348 646Q285 646 244 618T178 545T144 447T134 341Q134 269 149 211T192 112T262 49T354 27Q401 27 441 46T510 104T555 200T572 334Z"  />
<glyph unicode="P" horiz-adv-x="530" d="M515 487Q515 389 440 335Q408 312 366 300T271 288H196V58L308 24V0H24V24L112 58V621L24 656V680H279Q345 680 386 668T460 626Q515 574 515 487ZM426 486Q426 559 389 600T275 641H196V327H249Q331 327 378 364T426 486Z"  />
<glyph unicode="Q" horiz-adv-x="731" d="M869 -122Q830 -154 805 -171T762 -198T731 -209T705 -211Q683 -211 653 -201T587 -175T514 -138T441 -96T373 -55T318 -21L303 -13Q244 -9 196 17T113 88T59 193T40 324Q40 396 60 462T121 578T222 659T360 690Q430 690 486 666T582 598T643 491T664 351Q664 289 649 233T604 130T529 49T424 -4Q461 -24 504 -45T593 -86Q630 -102 655 -111T696 -124T723 -130T743 -131Q761 -131 774 -129T801 -122T827 -112T859 -99L869 -122ZM564 330Q564 382 554 438T520 540T453 616T344 646Q297 646 258 627T192 569T149 474T134 340Q134 263 150 205T195 107T264 47T351 27Q414 27 455 55T520 128T554 226T564 330Z"  />
<glyph unicode="R" horiz-adv-x="607" d="M470 0L242 324H196V58L284 24V0H24V24L112 58V621L24 656V680H291Q322 680 344 679T382 673T412 661T440 642Q496 596 496 517Q496 483 485 454T451 401T399 363T329 342L543 60L622 24V0H470ZM408 508Q408 568 375 604T279 641H196V364H275Q304 364 328 375T370 405T398 450T408 508Z"  />
<glyph unicode="S" horiz-adv-x="511" d="M457 169Q457 127 442 95T397 40Q368 16 329 3T239 -11Q230 -11 217 -10T187 -7T154 -3T122 4Q106 8 97 10T80 14T68 17T54 21V167H88L138 44Q155 42 173 41T214 39Q253 39 276 43T319 60Q342 75 353 99T365 153Q365 177 358 195T339 227T311 253T274 278L173 344Q152 357 138 368T112 389T93 409T77 432Q67 450 63 471T58 516Q58 550 71 581T109 637T170 675T254 690Q272 690 297 688T356 679L437 663V524H401L353 639Q332 642 320 643T293 644Q270 644 243 641T192 628T152 597T136 542Q136 518 144 500T165 468T193 442T224 422L334 353Q362 335 384 318T423 279T448 231T457 169Z"  />
<glyph unicode="T" horiz-adv-x="569" d="M536 517L490 636H330V59L437 24V0H140V24L246 59V636H81L34 517H0V680H569V517H536Z"  />
<glyph unicode="U" horiz-adv-x="679" d="M596 621V234Q596 168 578 122T527 47T444 4T333 -9Q265 -9 218 4T140 45T96 113T82 209V621L-5 656V680H254V656L166 621V217Q166 123 210 81T347 38Q444 38 489 79T535 210V621L448 656V680H684V656L596 621Z"  />
<glyph unicode="V" horiz-adv-x="638" d="M585 621L335 -10H289L59 621L-19 656V680H231V656L152 621L298 191L330 94L519 621L440 656V680H663V656L585 621Z"  />
<glyph unicode="W" horiz-adv-x="1013" d="M947 621L712 -11H680L499 538L306 -11H273L65 621L-14 656V680H232V656L154 622L282 212Q290 190 294 169T305 124L497 680H539L689 219Q698 190 703 170T714 123L883 621L802 656V680H1028V656L947 621Z"  />
<glyph unicode="X" horiz-adv-x="621" d="M368 0V24L449 60L294 302L143 60L220 24V0H-5V24L72 59L266 345L88 621L11 656V680H252V656L184 620L325 405L463 620L394 656V680H606V656L527 621L351 365L550 59L626 24V0H368Z"  />
<glyph unicode="Y" horiz-adv-x="574" d="M526 621L339 337V59L449 24V0H145V24L255 59V311L58 621L-19 656V680H231V656L155 619L308 374L458 620L385 656V680H603V656L526 621Z"  />
<glyph unicode="Z" horiz-adv-x="554" d="M506 0H30V30L411 637H134L89 517H55V680H521V654L137 48H427L494 167H525L506 0Z"  />
<glyph unicode="[" horiz-adv-x="247" d="M72 -222V712H218V683H137V-193H218V-222H72Z"  />
<glyph unicode="\" horiz-adv-x="252" d="M187 -238L0 738H64L252 -238H187Z"  />
<glyph unicode="]" horiz-adv-x="247" d="M19 -222V-193H101V683H19V712H165V-222H19Z"  />
<glyph unicode="^" horiz-adv-x="576" d="M421 303L288 608L155 303H88L275 714H302L488 303H421Z"  />
<glyph unicode="_" horiz-adv-x="496" d="M0 -117V-72H496V-117H0Z"  />
<glyph unicode="`" horiz-adv-x="239" d="M194 558L0 704H136L239 558H194Z"  />
<glyph unicode="a" horiz-adv-x="488" d="M419 7Q394 -1 382 -2T363 -4Q317 -4 312 44Q301 39 291 35T266 23Q237 10 217 3T167 -4Q107 -4 69 30T30 118Q30 207 137 233Q163 239 201 243T280 252L309 255V369Q309 406 299 422T261 446Q250 449 234 451T198 453Q190 453 185 453T171 452L129 370H76V460Q100 466 115 469T141 475Q170 483 197 487T247 492Q315 492 353 464Q374 448 381 428T389 375V100Q389 79 392 76Q397 72 402 70T421 62L477 45V26L419 7ZM309 230Q278 225 249 221T189 208Q122 189 122 130Q122 92 149 69T223 46Q244 46 262 50T309 62V230Z"  />
<glyph unicode="b" horiz-adv-x="555" d="M522 264Q522 207 500 157T441 70T353 12T246 -10Q231 -10 213 -8T174 -3T133 5T94 14V628L0 656V675L174 715V436Q189 444 203 450T237 466Q273 481 293 486T330 492Q371 492 406 475T467 427T507 354T522 264ZM437 239Q437 284 424 319T388 380Q365 403 334 416T266 430Q240 430 217 426T174 413V43Q187 41 201 41T229 40Q271 40 301 46T354 67Q395 93 416 136T437 239Z"  />
<glyph unicode="c" horiz-adv-x="458" d="M434 29Q418 24 405 20Q394 17 384 14T372 11Q354 5 340 1T313 -5T285 -9T251 -10Q202 -10 163 8T95 58T51 134T35 231Q35 289 55 337T111 420T197 474T310 493Q336 493 365 488T430 474V371H375L330 461H320Q275 461 238 446T175 403T133 339T118 258Q118 211 130 172T167 103Q193 73 228 60T313 46Q327 46 337 46T359 48T387 51T428 59L434 29H434Z"  />
<glyph unicode="d" horiz-adv-x="552" d="M382 -13V47Q361 37 349 31T315 15Q283 1 259 -4T218 -9Q179 -9 146 8T88 57T49 129T35 219Q35 279 54 329T110 415T196 472T306 493Q316 493 328 492T350 489T369 485T382 479V628L289 656V675L462 715V71L543 45V26L382 -13ZM382 444Q369 447 355 448T317 450Q224 450 171 396T118 247Q118 154 166 104T294 53Q315 53 335 57T382 69V444Z"  />
<glyph unicode="e" horiz-adv-x="494" d="M127 262Q127 204 135 167T172 101Q200 71 235 58T326 44Q345 44 378 47T440 55L446 29Q434 26 422 22Q411 19 400 15T379 9Q339 -3 312 -6T257 -10Q207 -10 167 8T97 58T51 134T35 232Q35 292 56 343T113 429Q144 458 182 475T266 492Q326 492 370 464T435 384Q439 374 442 364T447 340T451 307T454 262H127ZM361 306Q360 351 355 375T334 419Q319 437 302 445T256 453Q201 453 169 411T128 289L361 306Z"  />
<glyph unicode="f" horiz-adv-x="341" d="M382 622L353 682Q348 683 345 683T340 683Q314 683 287 675T240 653Q193 621 193 538V482H353V439H193V59L302 24V0H27V24L113 59V439H24V482H113V526Q113 570 130 606T177 667T251 706T349 720Q375 720 399 717T444 708V622H382Z"  />
<glyph unicode="g" horiz-adv-x="518" d="M359 449Q377 438 389 425T411 397Q422 380 426 363T430 325Q430 290 416 261T378 210T319 176T246 164Q232 164 221 164T191 170Q170 148 158 128T146 97Q146 79 163 70Q185 57 226 57H366Q404 57 426 50T463 27Q486 2 486 -37Q486 -112 408 -170Q374 -196 327 -209T238 -223Q185 -223 145 -214T70 -184Q43 -167 27 -145T10 -100Q10 -68 49 -39Q61 -30 78 -21T115 -1Q74 29 74 60Q74 82 101 111Q117 127 134 144T167 176Q143 184 130 191T102 209Q76 231 61 260T46 323Q46 357 60 387T100 441T159 478T231 492Q260 492 286 487T339 466L518 499V419L359 449ZM349 314Q349 349 339 377T309 425Q295 441 276 449T236 457Q214 457 196 448T163 423T141 385T133 338Q133 295 149 264T193 215Q205 208 218 204T246 199Q291 199 320 231T349 314ZM419 -68Q419 -55 413 -44T394 -25Q383 -19 368 -17T326 -14H178Q163 -14 155 -14T135 -9Q125 -15 116 -25T100 -46T88 -69T83 -90Q83 -110 95 -127T128 -156T178 -176T240 -184Q277 -184 309 -175T366 -150T405 -113T419 -68Z"  />
<glyph unicode="h" horiz-adv-x="608" d="M336 0V24L423 59V319Q423 351 413 375T379 411Q361 419 338 422T284 426Q261 426 237 424T191 418V59L271 24V0H24V24L111 59V628L16 653V674L191 715V440Q207 446 222 453T250 466Q271 474 285 479T310 487T334 491T364 492Q396 492 421 481T468 449Q488 429 495 402T503 335V59L590 24V0H336Z"  />
<glyph unicode="i" horiz-adv-x="294" d="M208 666Q208 613 153 613Q97 613 97 664Q97 715 153 715Q208 715 208 666ZM24 0V24L112 59V412L24 439V459L192 497V59L279 24V0H24Z"  />
<glyph unicode="j" horiz-adv-x="298" d="M225 666Q225 641 210 627T168 613Q142 613 128 626T113 664Q113 715 168 715Q225 715 225 666ZM208 -11Q208 -67 194 -104T142 -175Q112 -202 79 -212T3 -222Q-14 -222 -31 -221T-59 -218V-126H1L36 -187Q86 -178 106 -144T127 -44V411L40 439V459L208 497V-11Z"  />
<glyph unicode="k" horiz-adv-x="569" d="M426 0L211 263L391 435L322 461V482H556V461L456 430L297 287L493 52L570 24V0H426ZM31 0V24L119 59V628L24 654V675L199 715V59L290 24V0H31Z"  />
<glyph unicode="l" horiz-adv-x="296" d="M31 0V24L119 59V628L24 654V675L199 715V59L286 24V0H31Z"  />
<glyph unicode="m" horiz-adv-x="904" d="M637 0V24L725 59V315Q725 351 718 371T692 405Q672 418 645 423T583 428Q558 428 528 423T478 413Q486 396 490 372T494 318V59L581 24V0H332V24L413 59V314Q413 378 383 403T279 428Q267 428 258 428T239 426T219 423T193 418V59L281 24V0H26V24L113 59V412L25 439V459L193 497V440Q212 448 235 458T278 476Q310 488 329 490T364 492Q399 492 422 478T467 432Q487 440 506 448T546 465Q572 475 588 480T616 488T638 491T664 492Q693 492 719 483T766 453Q789 430 797 403T806 332V59L894 24V0H637Z"  />
<glyph unicode="n" horiz-adv-x="603" d="M339 0V24L425 59V319Q425 389 380 411Q363 419 340 422T286 426Q263 426 238 424T193 418V59L273 24V0H27V24L113 59V412L25 439V459L193 497V440Q208 446 223 453T252 466Q273 474 286 479T311 487T334 491T364 492Q398 492 423 481T470 449Q490 429 497 402T505 335V59L593 24V0H339Z"  />
<glyph unicode="o" horiz-adv-x="536" d="M501 245Q501 194 484 147T436 64T360 7T261 -15Q211 -15 170 2T98 52T52 130T35 229Q35 284 50 332T96 415T172 471T276 492Q331 492 373 472T443 419T486 340T501 245ZM411 224Q411 260 405 299T383 372T338 426T263 448Q197 448 162 395T126 241Q126 206 132 168T155 99T200 47T273 27Q314 27 340 45T383 92T405 156T411 224Z"  />
<glyph unicode="p" horiz-adv-x="570" d="M535 264Q535 205 514 155T455 68T365 11T251 -10Q230 -10 215 -9T186 -4V-162L296 -197V-221H19V-197L106 -162V412L18 439V459L186 497V436Q198 441 210 447T253 467Q285 481 307 486T341 492Q382 492 417 474T479 425T520 353T535 264ZM450 233Q450 272 439 308T405 371T350 414T276 430Q250 430 227 425T186 413V37Q203 35 217 35T247 34Q285 34 311 39T361 57Q404 81 427 128T450 233Z"  />
<glyph unicode="q" horiz-adv-x="554" d="M300 -221V-197L388 -165V47Q371 39 354 31T316 14Q295 4 272 -3T223 -10Q182 -10 148 8T88 57T49 132T35 227Q35 358 137 439Q173 467 212 480T301 493Q316 493 328 492T351 489T375 484T404 474L468 504V-165L554 -197V-221H300ZM388 439Q365 450 312 450Q269 450 233 436T172 395T132 333T118 252Q118 212 127 176T157 113T212 69T296 53Q319 53 339 56T388 70V439Z"  />
<glyph unicode="r" horiz-adv-x="405" d="M333 372L302 425Q292 426 286 426T273 426Q255 426 233 422T193 411V59L300 24V0H26V24L113 59V412L25 439V459L193 497V434Q255 465 291 478T350 492Q362 492 375 488T400 480V372H333Z"  />
<glyph unicode="s" horiz-adv-x="405" d="M355 131Q355 99 344 73T312 29T263 0T201 -11Q184 -11 162 -8T112 2Q97 5 83 9T49 18V128H85L132 33Q149 30 157 29T179 28Q200 28 219 32T253 46T276 71T285 109Q285 151 234 182L137 239Q128 244 115 253T88 276T65 310T55 357Q55 420 94 456T205 492Q240 492 273 485T340 471V368H303L263 449Q250 451 241 452T215 453Q170 453 145 436T119 387Q119 364 134 346T186 308L265 266Q297 248 312 233T337 204Q347 189 351 170T355 131Z"  />
<glyph unicode="t" horiz-adv-x="353" d="M289 6Q267 1 252 -2T226 -7T207 -9T189 -10Q144 -10 120 14Q106 29 99 51T92 99V439H14V467Q27 473 40 480T66 495T87 510T101 522Q105 526 111 536T125 559T138 585T148 609H172V482H337V439H172V127Q172 80 189 62Q199 51 215 47T258 42Q281 42 299 44T340 52L348 19L289 6Z"  />
<glyph unicode="u" horiz-adv-x="581" d="M404 -14V40Q387 33 373 28Q361 23 350 19T337 14Q316 5 290 -3T241 -11Q229 -11 214 -10T184 -5T156 5T135 19Q92 59 92 138V412L5 438V459L172 497V156Q172 126 180 104T205 68Q234 46 295 46Q321 46 350 49T404 58V412L317 438V459L484 497V73L565 46V26L404 -14Z"  />
<glyph unicode="v" horiz-adv-x="501" d="M456 427L260 -10H226L52 433L-11 458V482H212V458L140 433L226 198Q236 172 243 146T257 90L386 427L315 458V482H517V458L456 427Z"  />
<glyph unicode="w" horiz-adv-x="783" d="M736 427L558 -10H519L397 340L264 -10H226L57 433L-8 458V482H224V458L142 433L236 170Q241 153 246 136T256 101L403 482H424L538 161Q543 146 547 136T556 101L670 427L590 458V482H798V458L736 427Z"  />
<glyph unicode="x" horiz-adv-x="542" d="M317 0V24L367 51L256 207L146 57L193 24V0H5V24L77 54L230 243L93 436L20 458V482H241V458L190 435L290 296L389 427L342 458V482H516V458L455 429L314 262L467 48L537 24V0H317Z"  />
<glyph unicode="y" horiz-adv-x="503" d="M460 426L243 -99Q217 -165 176 -193T67 -222Q52 -222 35 -221T7 -219V-125H62L97 -184Q126 -182 147 -161T191 -87L228 1L54 434L-10 458V482H214V458L142 434L246 159Q248 154 251 145T257 126T262 105T267 89L395 426L326 458V482H519V458L460 426Z"  />
<glyph unicode="z" horiz-adv-x="482" d="M40 0V31L330 438H140L91 349H60V482H433V454L141 44H356L411 151H438V0H40Z"  />
<glyph unicode="{" horiz-adv-x="400" d="M359 -199Q252 -198 202 -139Q191 -126 184 -112T172 -80T166 -36T164 27V105Q164 142 159 167T140 208T102 235T41 255V260Q78 268 102 278T140 305T159 347T164 410V487Q164 524 166 549T172 594T184 626T202 654Q227 684 264 698T359 715V685Q320 681 297 671T258 638Q250 627 246 617T239 593T235 563T234 520V466Q234 433 233 410T230 370T223 340T212 316Q185 268 102 258Q183 249 212 198Q217 189 221 178T228 149T232 108T234 50V-5Q234 -31 235 -48T239 -79T246 -102T258 -123Q274 -145 297 -156T359 -170V-199H359Z"  />
<glyph unicode="|" horiz-adv-x="241" d="M99 -238V738H143V-238H99Z"  />
<glyph unicode="}" horiz-adv-x="401" d="M359 255Q321 246 297 236T259 209T240 167T235 105V27Q235 -10 234 -35T228 -79T216 -111T197 -139Q171 -169 134 -183T42 -199V-170Q80 -167 103 -156T141 -123Q148 -113 153 -103T161 -79T165 -48T166 -5V50Q166 84 167 108T170 149T177 177T187 198Q218 249 297 258Q255 263 229 277T187 316Q181 327 177 340T170 370T167 410T166 466V520Q166 545 165 562T161 593T153 616T141 638Q126 660 104 670T42 685V715Q98 712 135 698T197 654Q209 640 216 627T227 595T233 550T235 487V410Q235 372 240 347T259 306T297 279T359 260V255H359Z"  />
<glyph unicode="~" horiz-adv-x="582" d="M573 326Q566 300 556 272T531 220T492 181T434 165Q422 165 410 167T380 174T340 187T282 209L231 228Q170 250 140 250Q105 250 79 225T40 152L10 162Q27 245 62 284T151 324Q182 324 210 315T269 293L334 268Q379 250 402 245T443 239Q478 239 502 262T545 338L573 326H573Z"  />
<glyph unicode="&#xA0;" horiz-adv-x="271" />
<glyph unicode="&#xA1;" horiz-adv-x="244" d="M181 440Q181 388 120 388Q91 388 79 400T66 439Q66 491 120 491Q181 491 181 440ZM62 -190L103 319H140L184 -190H62Z"  />
<glyph unicode="&#xA2;" horiz-adv-x="458" d="M434 29Q418 24 405 20Q394 17 384 14T372 11Q347 3 330 -1T294 -8V-81H255V-10H251Q202 -10 163 8T95 58T51 134T35 231Q35 282 50 326T95 403T164 459T255 489V560H294V493H310Q336 493 365 488T430 474V371H375L330 461H320Q313 461 307 461T294 460V47Q298 46 303 46T313 46Q327 46 337 46T359 48T387 51T428 59L434 29ZM255 451Q192 432 155 381T118 258Q118 211 130 172T167 103Q200 64 255 52V451Z"  />
<glyph unicode="&#xA3;" horiz-adv-x="534" d="M504 105Q487 64 473 38T446 -3T420 -25T394 -31Q386 -31 375 -30T347 -24L184 19Q177 21 164 22T144 24Q127 24 112 18T70 -3Q65 -5 57 -10L40 16L72 50Q84 62 92 73T104 97T111 125T113 162V308H54V352H113V480Q113 575 179 618Q204 634 234 643T295 652Q311 652 330 651T373 645Q381 643 397 640T431 632Q450 628 473 622V488H439L391 601Q384 603 366 604T326 606Q263 606 230 578T197 487V352H346V308H197V237Q197 193 189 161T163 106Q158 100 150 91T125 67Q122 65 119 62L108 51Q132 67 157 77T205 87Q216 87 229 86T257 80L366 55Q386 50 391 50T405 49Q425 49 445 66T485 114L504 105H504Z"  />
<glyph unicode="&#xA4;" horiz-adv-x="586" d="M486 127L422 187Q386 163 358 154T293 145Q255 145 228 154T164 188L99 127L66 159L131 222Q118 240 110 255T96 284T88 314T86 349Q86 384 95 411T131 475L66 538L99 570L164 508Q182 520 197 528T227 542T257 550T293 552Q330 552 358 542T422 507L486 570L520 538L455 475Q481 439 490 412T500 349Q500 330 498 315T491 285T477 255T455 222L520 159L486 127ZM436 349Q436 377 425 402T394 446T349 476T294 487Q264 487 238 476T192 447T162 403T151 349Q151 320 162 295T192 250T237 220T294 209Q323 209 348 220T393 250T424 294T436 349Z"  />
<glyph unicode="&#xA5;" horiz-adv-x="574" d="M526 621L339 337V288H470V248H339V191H470V152H339V59L449 24V0H145V24L255 59V152H123V191H255V248H123V288H255V311L58 621L-19 656V680H231V656L158 620L310 378L458 620L385 656V680H603V656L526 621Z"  />
<glyph unicode="&#xA6;" horiz-adv-x="215" d="M71 364V607H145V364H71ZM71 -122V122H145V-122H71Z"  />
<glyph unicode="&#xA7;" horiz-adv-x="522" d="M451 248Q451 213 435 181T390 126Q376 114 361 105T326 85Q344 74 357 62T381 35T396 0T401 -46Q401 -79 388 -105T354 -150T304 -179T246 -189Q235 -189 216 -188T176 -181Q161 -177 149 -174T120 -165V-42H152L193 -148Q203 -150 209 -151T227 -152Q335 -152 335 -65Q335 -32 318 -10T252 39L193 71Q168 84 146 97T106 127T79 166T69 221Q69 256 84 288T129 344Q143 355 158 364T194 384Q176 395 163 407T139 434T124 469T119 516Q119 549 132 575T166 620T215 649T273 659Q285 659 304 657T344 650Q359 646 371 643T400 635V511H368L326 617Q317 619 311 620T293 621Q184 621 184 534Q184 502 202 480T268 431L326 399Q351 385 373 372T413 342T440 303T451 248ZM382 217Q382 235 377 252T362 280Q356 287 351 292T337 302T317 315T284 334L221 369Q175 338 157 311T138 252Q138 214 157 189Q163 182 168 177T182 167T203 154T236 135L298 100Q344 131 363 158T382 217Z"  />
<glyph unicode="&#xA8;" horiz-adv-x="260" d="M260 630Q260 581 215 581Q172 581 172 624Q172 650 182 661T213 672Q260 672 260 630ZM89 627Q89 581 43 581Q0 581 0 623Q0 672 43 672Q89 672 89 627Z"  />
<glyph unicode="&#xA9;" horiz-adv-x="799" d="M770 358Q770 280 742 211T664 90T547 8T401 -23Q323 -23 255 6T137 87T58 207T29 354Q29 433 58 502T138 622T257 702T405 732Q484 732 551 703T666 624T742 505T770 358ZM708 358Q708 424 686 483T624 585T528 654T405 680Q337 680 280 655T181 585T116 481T92 354Q92 287 115 228T179 125T277 54T401 28Q468 28 524 54T621 126T685 231T708 358ZM541 184Q530 180 517 177T492 172Q470 167 450 166T410 164Q364 164 326 175T261 209T220 268T205 352Q205 404 221 443T267 509T338 549T430 562Q460 562 489 558T545 548V450H516L486 529Q472 530 464 530T447 531Q366 531 326 488T285 360Q285 300 304 268T350 220T404 202T447 199Q460 199 483 204L521 279H549L541 184Z"  />
<glyph unicode="&#xAA;" horiz-adv-x="334" d="M263 395Q259 393 251 393T238 392Q208 392 203 419Q173 407 154 400T112 392Q72 392 46 412T20 466Q20 522 92 537Q118 543 145 545T201 551V612Q201 633 195 641T171 655Q164 657 154 658T132 659H116L89 610H50V667Q68 672 77 673T95 677Q113 682 131 684T163 687Q207 687 233 670Q258 653 258 616V454Q258 443 260 440T276 434L314 426V411L263 395ZM201 528Q182 526 164 525T127 518Q86 507 86 473Q86 453 102 440T148 427Q162 427 173 428T201 436V528Z"  />
<glyph unicode="&#xAB;" horiz-adv-x="363" d="M273 54L158 249L273 443H313L197 249L313 54H273ZM158 54L43 249L158 443H198L84 249L198 54H158Z"  />
<glyph unicode="&#xAC;" horiz-adv-x="534" d="M439 132V257H41V331H493V132H439Z"  />
<glyph unicode="&#xAD;" horiz-adv-x="241" d="M10 223V298H232V223H10Z"  />
<glyph unicode="&#xAE;" horiz-adv-x="425" d="M396 547Q396 508 382 474T344 413T286 372T213 357Q174 357 141 371T83 411T44 471T29 545Q29 584 43 618T83 677T142 717T215 732Q254 732 287 718T345 678T382 620T396 547ZM358 547Q358 578 348 605T318 653T273 686T215 698Q183 698 156 686T110 653T79 604T68 545Q68 513 79 485T109 436T154 403T213 390Q244 390 271 402T317 436T347 486T358 547ZM251 453L190 544H184V473L209 462V453H118V462L143 473V624L118 636V644H211Q235 644 255 636T276 597Q276 556 234 547L286 473L309 462V453H251ZM232 595Q232 611 224 620T199 630H184V556H200Q232 556 232 595Z"  />
<glyph unicode="&#xAF;" horiz-adv-x="258" d="M0 602V658H258V602H0Z"  />
<glyph unicode="&#xB0;" horiz-adv-x="399" d="M342 575Q342 546 331 521T301 476T255 446T199 435Q170 435 144 446T99 476T68 520T57 575Q57 604 68 629T98 673T144 703T199 714Q229 714 255 703T300 674T331 630T342 575ZM299 575Q299 596 291 613T270 644T238 664T199 672Q178 672 160 665T128 644T107 614T99 575Q99 555 106 537T127 506T159 484T199 476Q220 476 238 484T269 505T291 537T299 575Z"  />
<glyph unicode="&#xB1;" horiz-adv-x="549" d="M311 371V148H236V371H19V443H236V645H311V443H527V371H311ZM19 0V68H529V0H19Z"  />
<glyph unicode="&#xB2;" horiz-adv-x="358" d="M322 268H22V292Q25 294 35 303T57 322T78 342T91 354Q163 420 193 461Q228 509 228 553Q228 593 204 612T140 631Q118 631 99 627L69 551H39V646Q45 648 58 651T86 656Q119 663 139 664T177 666Q208 666 233 659T278 637T307 604T318 563Q318 543 313 527T297 494T268 459T224 418Q210 406 198 396T172 375T143 353T108 326H268L301 384H332L322 268Z"  />
<glyph unicode="&#xB3;" horiz-adv-x="359" d="M326 380Q326 329 278 298T151 266Q117 266 83 272T22 288V382H53L88 303Q98 301 105 301T126 301Q145 301 165 304T202 317T228 341T239 380Q239 418 215 438T146 458H121V489H134Q225 489 225 563Q225 633 140 633Q129 633 116 632T91 629L57 554H28V647L79 657Q114 663 133 664T170 666Q237 666 274 642T312 575Q312 499 200 476Q226 474 249 468T289 450T316 421T326 380Z"  />
<glyph unicode="&#xB4;" horiz-adv-x="239" d="M45 558H0L103 704H239L45 558Z"  />
<glyph unicode="&#xB5;" horiz-adv-x="593" d="M519 4Q510 1 496 -2T472 -6Q448 -6 433 5T414 42Q413 45 413 49T413 56V63Q385 40 365 27T328 6T295 -4T257 -7Q232 -7 206 4T167 36V-174L57 -204L51 -182Q61 -174 68 -169T83 -152Q87 -146 89 -133T93 -103T95 -69T95 -38V406Q95 411 93 417T82 425L27 440V464L187 502V251Q187 205 189 172T199 120Q210 94 239 78T308 61Q319 61 337 65T372 75Q391 81 412 89V406Q412 411 410 417T400 425L345 440V464L505 502V101Q505 96 505 89T508 78Q511 73 516 69T535 59L574 44V23L519 4Z"  />
<glyph unicode="&#xB6;" horiz-adv-x="572" d="M475 637V31Q475 -4 468 -32T449 -82T422 -123T392 -154Q379 -165 361 -173T323 -186T282 -193T241 -195Q224 -195 206 -194T176 -191V-100H237L269 -161Q301 -157 327 -145T373 -110T404 -53T415 30V637H337V182Q324 179 310 177Q298 175 282 174T248 173Q198 173 157 190T87 240T41 316T24 414Q24 473 44 522T102 606T190 660T305 680H537V637H475Z"  />
<glyph unicode="&#xB7;" horiz-adv-x="265" d="M187 246Q187 223 171 208T132 192Q109 192 93 207T77 246Q77 269 93 284T132 300Q155 300 171 285T187 246Z"  />
<glyph unicode="&#xB8;" horiz-adv-x="275" d="M212 -113Q212 -145 180 -175T69 -224L61 -206Q151 -161 151 -107Q151 -85 139 -72T107 -59V0H143V-35Q181 -37 196 -58T212 -113Z"  />
<glyph unicode="&#xB9;" horiz-adv-x="357" d="M75 269V290L148 312V589L29 569V594Q85 608 125 626T198 666H231V312L303 290V269H75Z"  />
<glyph unicode="&#xBA;" horiz-adv-x="338" d="M322 537Q322 506 311 478T279 429T229 395T164 382Q132 382 105 392T58 422T27 468T16 527Q16 560 26 588T57 638T106 672T175 684Q209 684 236 673T283 641T312 594T322 537ZM256 524Q256 543 252 565T238 607T210 640T166 653Q128 653 105 620T82 534Q82 516 86 495T101 456T128 425T171 412Q196 412 212 424T238 453T252 490T256 524Z"  />
<glyph unicode="&#xBB;" horiz-adv-x="364" d="M204 54H164L279 249L164 443H204L319 249L204 54ZM90 54H49L165 249L49 443H90L204 249L90 54Z"  />
<glyph unicode="&#xBC;" horiz-adv-x="878" d="M784 113V43L842 21V0H652V21L711 43V113H503V141L742 398H784V159H849V113H784ZM267 -15H197L616 667H686L267 -15ZM70 269V290L143 312V589L23 569V594Q80 608 120 626T193 666H226V312L298 290V269H70ZM711 315Q704 307 684 285T641 238T597 190T569 159H711V315Z"  />
<glyph unicode="&#xBD;" horiz-adv-x="877" d="M848 0H550V24L618 86Q654 119 680 146T721 193Q738 218 746 240T754 286Q754 325 731 344T667 363Q644 363 627 359L596 284H565V379Q572 380 585 383T612 388Q646 395 665 396T703 398Q766 398 805 370T845 296Q845 276 840 260T824 227T794 192T751 151Q737 139 725 129T699 108T671 85T636 58H795L829 117H859L848 0ZM263 -15H194L611 667H682L263 -15ZM67 269V290L139 312V589L20 569V594Q77 608 117 626T189 666H222V312L295 290V269H67Z"  />
<glyph unicode="&#xBE;" horiz-adv-x="878" d="M781 113V43L839 21V0H650V21L708 43V113H500V141L739 398H781V159H846V113H781ZM272 -15H203L622 667H692L272 -15ZM318 380Q318 329 270 298T143 266Q110 266 76 272T15 288V382H46L80 303Q91 301 98 301T118 301Q137 301 157 304T194 317T220 341T231 380Q231 418 207 438T139 458H114V489H127Q216 489 216 563Q216 633 132 633Q120 633 108 632T83 629L49 554H19V647L71 657Q106 663 125 664T162 666Q229 666 266 642T304 575Q304 499 193 476Q218 474 241 468T281 450T308 421T318 380ZM708 315Q679 280 641 238T567 159H708V315Z"  />
<glyph unicode="&#xBF;" horiz-adv-x="411" d="M286 440Q286 390 225 390Q165 390 165 439Q165 493 225 493Q286 493 286 440ZM403 -155Q391 -157 384 -158T370 -161T356 -164T336 -169Q315 -174 299 -177T269 -182T243 -185T216 -186Q117 -186 64 -137T11 -10Q11 42 30 81T99 164L157 216Q170 228 179 235T194 250T202 268T205 295V330H245L250 292Q251 284 251 277T252 265Q252 255 251 247T245 231T232 212T212 188L160 133Q129 100 117 68T105 -8Q105 -71 141 -107T241 -143Q266 -143 286 -141T320 -136L368 -16H403V-155Z"  />
<glyph unicode="&#xC0;" horiz-adv-x="651" d="M367 736L174 882H309L413 736H367ZM414 0V24L495 62L417 278H198L117 62L196 24V0H-27V24L53 62L309 684H361L583 62L662 24V0H414ZM345 487L314 581L212 316H402L345 487Z"  />
<glyph unicode="&#xC1;" horiz-adv-x="651" d="M322 736H276L379 882H515L322 736ZM414 0V24L495 62L417 278H198L117 62L196 24V0H-27V24L53 62L309 684H361L583 62L662 24V0H414ZM345 487L314 581L212 316H402L345 487Z"  />
<glyph unicode="&#xC2;" horiz-adv-x="651" d="M446 736L337 802L233 736H177L337 891L501 736H446ZM414 0V24L495 62L417 278H198L117 62L196 24V0H-27V24L53 62L309 684H361L583 62L662 24V0H414ZM345 487L314 581L212 316H402L345 487Z"  />
<glyph unicode="&#xC3;" horiz-adv-x="651" d="M512 860Q498 842 479 817T443 778Q426 764 407 764Q399 764 392 765T365 778L290 817Q282 821 275 823T263 826Q253 826 234 812T189 774L171 791Q178 800 186 811T204 834T223 856T242 874Q250 882 259 885T277 888Q285 888 292 886T319 873L394 835Q402 831 409 828T421 825Q431 825 446 836T496 878L512 860H512ZM414 0V24L495 62L417 278H198L117 62L196 24V0H-27V24L53 62L309 684H361L583 62L662 24V0H414ZM345 487L314 581L212 316H402L345 487Z"  />
<glyph unicode="&#xC4;" horiz-adv-x="651" d="M462 807Q462 760 417 760Q373 760 373 802Q373 851 415 851Q462 851 462 807ZM290 805Q290 760 244 760Q202 760 202 801Q202 851 244 851Q290 851 290 805ZM414 0V24L495 62L417 278H198L117 62L196 24V0H-27V24L53 62L309 684H361L583 62L662 24V0H414ZM345 487L314 581L212 316H402L345 487Z"  />
<glyph unicode="&#xC5;" horiz-adv-x="651" d="M414 0V24L495 62L417 278H198L117 62L196 24V0H-27V24L53 62L309 684H361L583 62L662 24V0H414ZM345 487L314 581L212 316H402L345 487ZM442 813Q442 776 415 757T337 737Q286 737 260 756T233 813Q233 889 337 889Q388 889 415 870T442 813ZM403 814Q403 834 385 848T336 863Q307 863 290 848T272 812Q272 790 290 777T339 763Q370 763 386 777T403 814Z"  />
<glyph unicode="&#xC6;" horiz-adv-x="841" d="M784 0H334V24L413 61V303H244L125 61L202 24V0H-19V24L57 61L388 680H781V530H750L701 640H495V346H668L701 438H730V212H701L668 303H495V44H705L770 156H802L784 0ZM413 635H408L266 346H413V635Z"  />
<glyph unicode="&#xC7;" horiz-adv-x="640" d="M594 25Q558 15 535 11T488 1Q463 -4 439 -6T388 -10V-35Q426 -37 441 -58T457 -113Q457 -145 425 -175T315 -224L307 -206Q396 -162 396 -107Q396 -85 385 -72T354 -59V-10Q270 -7 217 13T121 80Q40 170 40 316Q40 394 62 465T131 588Q180 642 248 666T413 690Q464 690 506 684T600 668V517H567L516 642Q499 644 479 646T431 648Q355 648 300 629T207 569Q167 527 147 468T127 333Q127 206 190 127Q227 83 279 64T415 44Q427 44 435 44T453 44T475 46T507 48L577 174H606L594 25Z"  />
<glyph unicode="&#xC8;" horiz-adv-x="566" d="M315 736L122 882H257L361 736H315ZM506 0H24V24L112 59V621L24 656V680H502V530H468L420 641H196V364H386L420 456H450V235H420L386 326H196V44H425L488 156H523L506 0Z"  />
<glyph unicode="&#xC9;" horiz-adv-x="566" d="M271 736H225L328 882H464L271 736ZM506 0H24V24L112 59V621L24 656V680H502V530H468L420 641H196V364H386L420 456H450V235H420L386 326H196V44H425L488 156H523L506 0Z"  />
<glyph unicode="&#xCA;" horiz-adv-x="566" d="M393 736L284 802L180 736H124L284 891L448 736H393ZM506 0H24V24L112 59V621L24 656V680H502V530H468L420 641H196V364H386L420 456H450V235H420L386 326H196V44H425L488 156H523L506 0Z"  />
<glyph unicode="&#xCB;" horiz-adv-x="566" d="M417 807Q417 760 372 760Q328 760 328 802Q328 851 370 851Q417 851 417 807ZM245 805Q245 760 199 760Q157 760 157 801Q157 851 199 851Q245 851 245 805ZM506 0H24V24L112 59V621L24 656V680H502V530H468L420 641H196V364H386L420 456H450V235H420L386 326H196V44H425L488 156H523L506 0Z"  />
<glyph unicode="&#xCC;" horiz-adv-x="307" d="M182 736L-11 882H124L228 736H182ZM24 0V24L112 59V621L24 656V680H283V656L196 621V59L283 24V0H24Z"  />
<glyph unicode="&#xCD;" horiz-adv-x="307" d="M124 736H78L181 882H317L124 736ZM24 0V24L112 59V621L24 656V680H283V656L196 621V59L283 24V0H24Z"  />
<glyph unicode="&#xCE;" horiz-adv-x="307" d="M263 738L154 804L50 738H-6L154 893L318 738H263ZM24 0V24L112 59V621L24 656V680H283V656L196 621V59L283 24V0H24Z"  />
<glyph unicode="&#xCF;" horiz-adv-x="307" d="M283 806Q283 759 238 759Q194 759 194 801Q194 850 236 850Q283 850 283 806ZM111 804Q111 759 65 759Q23 759 23 800Q23 850 65 850Q111 850 111 804ZM24 0V24L112 59V621L24 656V680H283V656L196 621V59L283 24V0H24Z"  />
<glyph unicode="&#xD0;" horiz-adv-x="708" d="M667 356Q667 262 633 185T534 60Q491 28 438 14T310 0H24V24L112 59V381H14V424H112V621L24 656V680H326Q377 680 416 675T486 659T543 629T592 583Q667 495 667 356ZM579 349Q579 467 524 546Q489 594 441 615T322 636H196V424H299V381H196V44H304Q338 44 364 47T413 59T455 81T495 115Q538 159 558 215T579 349Z"  />
<glyph unicode="&#xD1;" horiz-adv-x="721" d="M550 860Q536 842 517 817T481 778Q464 764 445 764Q437 764 430 765T403 778L328 817Q320 821 313 823T301 826Q291 826 272 812T227 774L209 791Q216 800 224 811T242 834T261 856T280 874Q288 882 297 885T315 888Q323 888 330 886T357 873L432 835Q440 831 447 828T459 825Q469 825 484 836T534 878L550 860H550ZM622 621V-10H599L163 575V59L252 24V0H24V24L112 59V621L24 656V680H187L571 172V621L483 656V680H710V656L622 621Z"  />
<glyph unicode="&#xD2;" horiz-adv-x="703" d="M377 736L184 882H319L423 736H377ZM664 349Q664 268 641 201T575 86T473 12T343 -15Q274 -15 218 8T123 75T62 180T40 319Q40 391 60 457T120 576T219 659T358 690Q434 690 491 663T587 590T645 481T664 349ZM572 334Q572 381 562 436T527 537T458 615T348 646Q285 646 244 618T178 545T144 447T134 341Q134 269 149 211T192 112T262 49T354 27Q401 27 441 46T510 104T555 200T572 334Z"  />
<glyph unicode="&#xD3;" horiz-adv-x="703" d="M318 736H272L375 882H511L318 736ZM664 349Q664 268 641 201T575 86T473 12T343 -15Q274 -15 218 8T123 75T62 180T40 319Q40 391 60 457T120 576T219 659T358 690Q434 690 491 663T587 590T645 481T664 349ZM572 334Q572 381 562 436T527 537T458 615T348 646Q285 646 244 618T178 545T144 447T134 341Q134 269 149 211T192 112T262 49T354 27Q401 27 441 46T510 104T555 200T572 334Z"  />
<glyph unicode="&#xD4;" horiz-adv-x="703" d="M470 736L361 802L257 736H201L361 891L525 736H470ZM664 349Q664 268 641 201T575 86T473 12T343 -15Q274 -15 218 8T123 75T62 180T40 319Q40 391 60 457T120 576T219 659T358 690Q434 690 491 663T587 590T645 481T664 349ZM572 334Q572 381 562 436T527 537T458 615T348 646Q285 646 244 618T178 545T144 447T134 341Q134 269 149 211T192 112T262 49T354 27Q401 27 441 46T510 104T555 200T572 334Z"  />
<glyph unicode="&#xD5;" horiz-adv-x="703" d="M538 860Q524 842 505 817T469 778Q452 764 433 764Q425 764 418 765T391 778L316 817Q308 821 301 823T289 826Q279 826 260 812T215 774L197 791Q204 800 212 811T230 834T249 856T268 874Q276 882 285 885T303 888Q311 888 318 886T345 873L420 835Q428 831 435 828T447 825Q457 825 472 836T522 878L538 860H538ZM664 349Q664 268 641 201T575 86T473 12T343 -15Q274 -15 218 8T123 75T62 180T40 319Q40 391 60 457T120 576T219 659T358 690Q434 690 491 663T587 590T645 481T664 349ZM572 334Q572 381 562 436T527 537T458 615T348 646Q285 646 244 618T178 545T144 447T134 341Q134 269 149 211T192 112T262 49T354 27Q401 27 441 46T510 104T555 200T572 334Z"  />
<glyph unicode="&#xD6;" horiz-adv-x="703" d="M491 807Q491 760 446 760Q402 760 402 802Q402 851 444 851Q491 851 491 807ZM319 805Q319 760 273 760Q231 760 231 801Q231 851 273 851Q319 851 319 805ZM664 349Q664 268 641 201T575 86T473 12T343 -15Q274 -15 218 8T123 75T62 180T40 319Q40 391 60 457T120 576T219 659T358 690Q434 690 491 663T587 590T645 481T664 349ZM572 334Q572 381 562 436T527 537T458 615T348 646Q285 646 244 618T178 545T144 447T134 341Q134 269 149 211T192 112T262 49T354 27Q401 27 441 46T510 104T555 200T572 334Z"  />
<glyph unicode="&#xD7;" horiz-adv-x="538" d="M458 60L269 245L80 60L31 108L219 294L31 479L80 527L269 342L458 527L507 479L318 294L507 108L458 60Z"  />
<glyph unicode="&#xD8;" horiz-adv-x="696" d="M660 350Q660 269 637 202T571 87T471 12T341 -15Q290 -15 252 -6T179 25L129 -50L91 -25L143 51Q89 99 63 165T37 326Q37 396 58 461T119 577T219 658T355 689Q378 689 397 687T435 680T474 667T519 647L558 709L596 685L554 621Q660 525 660 350ZM476 588Q448 620 421 632T351 645Q287 645 245 617T177 545T142 447T132 340Q132 199 186 115L476 588ZM565 334Q565 372 562 402T553 458T535 507T509 554L216 79Q246 51 276 39T346 27Q445 27 505 103T565 334Z"  />
<glyph unicode="&#xD9;" horiz-adv-x="679" d="M377 736L184 882H319L423 736H377ZM596 621V234Q596 168 578 122T527 47T444 4T333 -9Q265 -9 218 4T140 45T96 113T82 209V621L-5 656V680H254V656L166 621V217Q166 123 210 81T347 38Q444 38 489 79T535 210V621L448 656V680H684V656L596 621Z"  />
<glyph unicode="&#xDA;" horiz-adv-x="679" d="M301 736H255L358 882H494L301 736ZM596 621V234Q596 168 578 122T527 47T444 4T333 -9Q265 -9 218 4T140 45T96 113T82 209V621L-5 656V680H254V656L166 621V217Q166 123 210 81T347 38Q444 38 489 79T535 210V621L448 656V680H684V656L596 621Z"  />
<glyph unicode="&#xDB;" horiz-adv-x="679" d="M456 736L347 802L243 736H187L347 891L511 736H456ZM596 621V234Q596 168 578 122T527 47T444 4T333 -9Q265 -9 218 4T140 45T96 113T82 209V621L-5 656V680H254V656L166 621V217Q166 123 210 81T347 38Q444 38 489 79T535 210V621L448 656V680H684V656L596 621Z"  />
<glyph unicode="&#xDC;" horiz-adv-x="679" d="M473 807Q473 760 428 760Q384 760 384 802Q384 851 426 851Q473 851 473 807ZM301 805Q301 760 255 760Q213 760 213 801Q213 851 255 851Q301 851 301 805ZM596 621V234Q596 168 578 122T527 47T444 4T333 -9Q265 -9 218 4T140 45T96 113T82 209V621L-5 656V680H254V656L166 621V217Q166 123 210 81T347 38Q444 38 489 79T535 210V621L448 656V680H684V656L596 621Z"  />
<glyph unicode="&#xDD;" horiz-adv-x="574" d="M283 736H237L340 882H476L283 736ZM526 621L339 337V59L449 24V0H145V24L255 59V311L58 621L-19 656V680H231V656L155 619L308 374L458 620L385 656V680H603V656L526 621Z"  />
<glyph unicode="&#xDE;" horiz-adv-x="533" d="M521 386Q521 342 505 306T458 244T381 203T276 188H202V59L314 24V0H30V24L117 59V622L30 656V680H289V656L202 622V577H282Q330 577 373 567T450 535T502 476T521 386ZM431 383Q431 458 394 497T280 537H202V227H254Q294 227 326 236T382 263T418 311T431 383Z"  />
<glyph unicode="&#xDF;" horiz-adv-x="610" d="M582 136Q582 72 541 31T426 -11Q411 -11 391 -8T341 2Q331 4 325 5T311 9T296 13T276 18V128H312L359 33Q368 31 377 30T399 28Q421 28 441 31T477 44T502 68T512 108Q512 134 497 152T450 188L359 241Q314 267 296 295T277 361Q277 386 285 408T317 454L364 503Q377 516 385 526T399 544T406 561T408 581Q408 621 379 645T301 670Q274 670 251 663T209 639Q197 629 190 618T179 593T173 558T171 507V0H5V24L92 58V494Q92 557 109 598T169 672Q231 719 316 719Q361 719 395 709T452 682T487 642T499 593Q499 568 485 543T443 496L382 448Q346 421 346 386Q346 377 348 369T356 352T375 334T408 312L488 268Q508 257 525 245T555 217T575 182T582 136Z"  />
<glyph unicode="&#xE0;" horiz-adv-x="488" d="M419 7Q394 -1 382 -2T363 -4Q317 -4 312 44Q301 39 291 35T266 23Q237 10 217 3T167 -4Q107 -4 69 30T30 118Q30 207 137 233Q163 239 201 243T280 252L309 255V369Q309 406 299 422T261 446Q250 449 234 451T198 453Q190 453 185 453T171 452L129 370H76V460Q100 466 115 469T141 475Q170 483 197 487T247 492Q315 492 353 464Q374 448 381 428T389 375V100Q389 79 392 76Q397 72 402 70T421 62L477 45V26L419 7ZM309 230Q278 225 249 221T189 208Q122 189 122 130Q122 92 149 69T223 46Q244 46 262 50T309 62V230ZM269 558L75 704H211L314 558H269Z"  />
<glyph unicode="&#xE1;" horiz-adv-x="488" d="M419 7Q394 -1 382 -2T363 -4Q317 -4 312 44Q301 39 291 35T266 23Q237 10 217 3T167 -4Q107 -4 69 30T30 118Q30 207 137 233Q163 239 201 243T280 252L309 255V369Q309 406 299 422T261 446Q250 449 234 451T198 453Q190 453 185 453T171 452L129 370H76V460Q100 466 115 469T141 475Q170 483 197 487T247 492Q315 492 353 464Q374 448 381 428T389 375V100Q389 79 392 76Q397 72 402 70T421 62L477 45V26L419 7ZM309 230Q278 225 249 221T189 208Q122 189 122 130Q122 92 149 69T223 46Q244 46 262 50T309 62V230ZM229 558H184L287 704H423L229 558Z"  />
<glyph unicode="&#xE2;" horiz-adv-x="488" d="M419 7Q394 -1 382 -2T363 -4Q317 -4 312 44Q301 39 291 35T266 23Q237 10 217 3T167 -4Q107 -4 69 30T30 118Q30 207 137 233Q163 239 201 243T280 252L309 255V369Q309 406 299 422T261 446Q250 449 234 451T198 453Q190 453 185 453T171 452L129 370H76V460Q100 466 115 469T141 475Q170 483 197 487T247 492Q315 492 353 464Q374 448 381 428T389 375V100Q389 79 392 76Q397 72 402 70T421 62L477 45V26L419 7ZM309 230Q278 225 249 221T189 208Q122 189 122 130Q122 92 149 69T223 46Q244 46 262 50T309 62V230ZM343 561L235 628L131 561H74L235 717L399 561H343Z"  />
<glyph unicode="&#xE3;" horiz-adv-x="488" d="M419 7Q394 -1 382 -2T363 -4Q317 -4 312 44Q301 39 291 35T266 23Q237 10 217 3T167 -4Q107 -4 69 30T30 118Q30 207 137 233Q163 239 201 243T280 252L309 255V369Q309 406 299 422T261 446Q250 449 234 451T198 453Q190 453 185 453T171 452L129 370H76V460Q100 466 115 469T141 475Q170 483 197 487T247 492Q315 492 353 464Q374 448 381 428T389 375V100Q389 79 392 76Q397 72 402 70T421 62L477 45V26L419 7ZM309 230Q278 225 249 221T189 208Q122 189 122 130Q122 92 149 69T223 46Q244 46 262 50T309 62V230ZM410 682Q396 664 377 639T341 600Q324 586 305 586Q297 586 290 587T263 600L188 639Q180 643 173 645T161 648Q151 648 132 634T87 596L69 613Q76 622 84 633T102 656T121 678T140 696Q148 704 157 707T175 710Q183 710 190 708T217 695L292 657Q300 653 307 650T319 647Q329 647 344 658T394 700L410 682H410Z"  />
<glyph unicode="&#xE4;" horiz-adv-x="488" d="M419 7Q394 -1 382 -2T363 -4Q317 -4 312 44Q301 39 291 35T266 23Q237 10 217 3T167 -4Q107 -4 69 30T30 118Q30 207 137 233Q163 239 201 243T280 252L309 255V369Q309 406 299 422T261 446Q250 449 234 451T198 453Q190 453 185 453T171 452L129 370H76V460Q100 466 115 469T141 475Q170 483 197 487T247 492Q315 492 353 464Q374 448 381 428T389 375V100Q389 79 392 76Q397 72 402 70T421 62L477 45V26L419 7ZM309 230Q278 225 249 221T189 208Q122 189 122 130Q122 92 149 69T223 46Q244 46 262 50T309 62V230ZM366 630Q366 581 321 581Q278 581 278 624Q278 650 288 661T319 672Q366 672 366 630ZM195 627Q195 581 149 581Q106 581 106 623Q106 672 149 672Q195 672 195 627Z"  />
<glyph unicode="&#xE5;" horiz-adv-x="488" d="M338 636Q338 598 311 579T233 559Q182 559 156 578T129 636Q129 711 233 711Q284 711 311 692T338 636ZM299 637Q299 657 281 671T232 685Q203 685 186 671T168 635Q168 613 186 599T235 585Q266 585 282 599T299 637ZM419 7Q394 -1 382 -2T363 -4Q317 -4 312 44Q301 39 291 35T266 23Q237 10 217 3T167 -4Q107 -4 69 30T30 118Q30 207 137 233Q163 239 201 243T280 252L309 255V369Q309 406 299 422T261 446Q250 449 234 451T198 453Q190 453 185 453T171 452L129 370H76V460Q100 466 115 469T141 475Q170 483 197 487T247 492Q315 492 353 464Q374 448 381 428T389 375V100Q389 79 392 76Q397 72 402 70T421 62L477 45V26L419 7ZM309 230Q278 225 249 221T189 208Q122 189 122 130Q122 92 149 69T223 46Q244 46 262 50T309 62V230Z"  />
<glyph unicode="&#xE6;" horiz-adv-x="746" d="M385 262Q385 233 387 210T394 167T407 133T430 102Q459 71 494 58T586 45Q601 45 613 45T637 47T664 51T697 57L703 30Q643 9 598 0T518 -10Q456 -10 415 10T351 63Q318 45 293 32T246 10T204 -2T162 -6Q134 -6 109 3T65 28T35 66T24 116Q24 167 53 194T138 234Q170 241 211 245T303 255V363Q303 403 295 420T258 445Q247 448 231 450T190 453Q187 453 183 453T165 452L125 369H70V459Q135 477 176 484T247 492Q288 492 324 477T375 430Q387 444 404 456T441 477Q461 486 481 489T523 492Q580 492 626 464T694 380Q704 356 707 331T711 262H385ZM620 306Q618 345 613 370T593 415Q567 452 518 452Q461 452 425 412T385 287L620 306ZM303 230Q272 225 243 221T184 208Q116 189 116 130Q116 95 140 73T208 50Q229 50 252 55T293 68L303 72V230Z"  />
<glyph unicode="&#xE7;" horiz-adv-x="458" d="M434 29Q418 24 405 20Q394 17 384 14T372 11Q343 2 324 -2T280 -9V-35Q318 -37 333 -58T349 -113Q349 -145 317 -175T207 -224L199 -206Q288 -162 288 -107Q288 -85 276 -72T244 -59V-10Q197 -9 159 9T93 60T50 135T35 231Q35 289 55 337T111 420T197 474T310 493Q336 493 365 488T430 474V371H375L330 461H320Q275 461 238 446T175 403T133 339T118 258Q118 211 130 172T167 103Q193 73 228 60T313 46Q327 46 337 46T359 48T387 51T428 59L434 29H434Z"  />
<glyph unicode="&#xE8;" horiz-adv-x="494" d="M127 262Q127 204 135 167T172 101Q200 71 235 58T326 44Q345 44 378 47T440 55L446 29Q434 26 422 22Q411 19 400 15T379 9Q339 -3 312 -6T257 -10Q207 -10 167 8T97 58T51 134T35 232Q35 292 56 343T113 429Q144 458 182 475T266 492Q326 492 370 464T435 384Q439 374 442 364T447 340T451 307T454 262H127ZM361 306Q360 351 355 375T334 419Q319 437 302 445T256 453Q201 453 169 411T128 289L361 306ZM291 558L97 704H233L336 558H291Z"  />
<glyph unicode="&#xE9;" horiz-adv-x="494" d="M127 262Q127 204 135 167T172 101Q200 71 235 58T326 44Q345 44 378 47T440 55L446 29Q434 26 422 22Q411 19 400 15T379 9Q339 -3 312 -6T257 -10Q207 -10 167 8T97 58T51 134T35 232Q35 292 56 343T113 429Q144 458 182 475T266 492Q326 492 370 464T435 384Q439 374 442 364T447 340T451 307T454 262H127ZM361 306Q360 351 355 375T334 419Q319 437 302 445T256 453Q201 453 169 411T128 289L361 306ZM251 558H206L309 704H445L251 558Z"  />
<glyph unicode="&#xEA;" horiz-adv-x="494" d="M127 262Q127 204 135 167T172 101Q200 71 235 58T326 44Q345 44 378 47T440 55L446 29Q434 26 422 22Q411 19 400 15T379 9Q339 -3 312 -6T257 -10Q207 -10 167 8T97 58T51 134T35 232Q35 292 56 343T113 429Q144 458 182 475T266 492Q326 492 370 464T435 384Q439 374 442 364T447 340T451 307T454 262H127ZM361 306Q360 351 355 375T334 419Q319 437 302 445T256 453Q201 453 169 411T128 289L361 306ZM373 560L265 627L161 560H104L265 716L429 560H373Z"  />
<glyph unicode="&#xEB;" horiz-adv-x="494" d="M127 262Q127 204 135 167T172 101Q200 71 235 58T326 44Q345 44 378 47T440 55L446 29Q434 26 422 22Q411 19 400 15T379 9Q339 -3 312 -6T257 -10Q207 -10 167 8T97 58T51 134T35 232Q35 292 56 343T113 429Q144 458 182 475T266 492Q326 492 370 464T435 384Q439 374 442 364T447 340T451 307T454 262H127ZM361 306Q360 351 355 375T334 419Q319 437 302 445T256 453Q201 453 169 411T128 289L361 306ZM391 630Q391 581 346 581Q303 581 303 624Q303 650 313 661T344 672Q391 672 391 630ZM220 627Q220 581 174 581Q131 581 131 623Q131 672 174 672Q220 672 220 627Z"  />
<glyph unicode="&#xEC;" horiz-adv-x="294" d="M24 0V24L112 59V412L24 439V459L192 497V59L279 24V0H24ZM184 558L-10 704H126L229 558H184Z"  />
<glyph unicode="&#xED;" horiz-adv-x="294" d="M24 0V24L112 59V412L24 439V459L192 497V59L279 24V0H24ZM107 558H62L165 704H301L107 558Z"  />
<glyph unicode="&#xEE;" horiz-adv-x="294" d="M24 0V24L112 59V412L24 439V459L192 497V59L279 24V0H24ZM254 560L146 627L42 560H-15L146 716L310 560H254Z"  />
<glyph unicode="&#xEF;" horiz-adv-x="294" d="M24 0V24L112 59V412L24 439V459L192 497V59L279 24V0H24ZM273 630Q273 581 228 581Q185 581 185 624Q185 650 195 661T226 672Q273 672 273 630ZM102 627Q102 581 56 581Q13 581 13 623Q13 672 56 672Q102 672 102 627Z"  />
<glyph unicode="&#xF0;" horiz-adv-x="522" d="M477 312Q477 225 460 159T411 57Q379 20 335 3T244 -15Q196 -15 157 3T91 55T50 133T35 234Q35 354 92 423T256 493Q292 493 324 484T385 463Q383 524 357 579T283 675L197 613L165 660L234 704Q220 712 200 717T138 723H118V767Q128 768 136 768T156 768Q195 768 229 762T289 744L372 805L403 759L339 714Q382 681 409 636T451 538T471 428T477 312ZM393 347Q393 368 393 383T390 421Q357 432 328 435T260 438Q217 438 190 419T146 371T124 306T118 235Q118 203 125 167T149 99T193 48T258 27Q303 27 329 48T370 111T388 211T393 347Z"  />
<glyph unicode="&#xF1;" horiz-adv-x="603" d="M339 0V24L425 59V319Q425 389 380 411Q363 419 340 422T286 426Q263 426 238 424T193 418V59L273 24V0H27V24L113 59V412L25 439V459L193 497V440Q208 446 223 453T252 466Q273 474 286 479T311 487T334 491T364 492Q398 492 423 481T470 449Q490 429 497 402T505 335V59L593 24V0H339ZM481 682Q467 664 448 639T412 600Q395 586 376 586Q368 586 361 587T334 600L259 639Q251 643 244 645T232 648Q222 648 203 634T158 596L140 613Q147 622 155 633T173 656T192 678T211 696Q219 704 228 707T246 710Q254 710 261 708T288 695L363 657Q371 653 378 650T390 647Q400 647 415 658T465 700L481 682H481Z"  />
<glyph unicode="&#xF2;" horiz-adv-x="536" d="M501 245Q501 194 484 147T436 64T360 7T261 -15Q211 -15 170 2T98 52T52 130T35 229Q35 284 50 332T96 415T172 471T276 492Q331 492 373 472T443 419T486 340T501 245ZM411 224Q411 260 405 299T383 372T338 426T263 448Q197 448 162 395T126 241Q126 206 132 168T155 99T200 47T273 27Q314 27 340 45T383 92T405 156T411 224ZM301 558L107 704H243L346 558H301Z"  />
<glyph unicode="&#xF3;" horiz-adv-x="536" d="M501 245Q501 194 484 147T436 64T360 7T261 -15Q211 -15 170 2T98 52T52 130T35 229Q35 284 50 332T96 415T172 471T276 492Q331 492 373 472T443 419T486 340T501 245ZM411 224Q411 260 405 299T383 372T338 426T263 448Q197 448 162 395T126 241Q126 206 132 168T155 99T200 47T273 27Q314 27 340 45T383 92T405 156T411 224ZM257 558H212L315 704H451L257 558Z"  />
<glyph unicode="&#xF4;" horiz-adv-x="536" d="M501 245Q501 194 484 147T436 64T360 7T261 -15Q211 -15 170 2T98 52T52 130T35 229Q35 284 50 332T96 415T172 471T276 492Q331 492 373 472T443 419T486 340T501 245ZM411 224Q411 260 405 299T383 372T338 426T263 448Q197 448 162 395T126 241Q126 206 132 168T155 99T200 47T273 27Q314 27 340 45T383 92T405 156T411 224ZM378 560L270 627L166 560H109L270 716L434 560H378Z"  />
<glyph unicode="&#xF5;" horiz-adv-x="536" d="M501 245Q501 194 484 147T436 64T360 7T261 -15Q211 -15 170 2T98 52T52 130T35 229Q35 284 50 332T96 415T172 471T276 492Q331 492 373 472T443 419T486 340T501 245ZM411 224Q411 260 405 299T383 372T338 426T263 448Q197 448 162 395T126 241Q126 206 132 168T155 99T200 47T273 27Q314 27 340 45T383 92T405 156T411 224ZM443 682Q429 664 410 639T374 600Q357 586 338 586Q330 586 323 587T296 600L221 639Q213 643 206 645T194 648Q184 648 165 634T120 596L102 613Q109 622 117 633T135 656T154 678T173 696Q181 704 190 707T208 710Q216 710 223 708T250 695L325 657Q333 653 340 650T352 647Q362 647 377 658T427 700L443 682H443Z"  />
<glyph unicode="&#xF6;" horiz-adv-x="536" d="M501 245Q501 194 484 147T436 64T360 7T261 -15Q211 -15 170 2T98 52T52 130T35 229Q35 284 50 332T96 415T172 471T276 492Q331 492 373 472T443 419T486 340T501 245ZM411 224Q411 260 405 299T383 372T338 426T263 448Q197 448 162 395T126 241Q126 206 132 168T155 99T200 47T273 27Q314 27 340 45T383 92T405 156T411 224ZM399 630Q399 581 354 581Q311 581 311 624Q311 650 321 661T352 672Q399 672 399 630ZM228 627Q228 581 182 581Q139 581 139 623Q139 672 182 672Q228 672 228 627Z"  />
<glyph unicode="&#xF7;" horiz-adv-x="590" d="M350 492Q350 469 335 454T296 439Q273 439 257 454T241 492Q241 515 257 530T296 545Q319 545 334 530T350 492ZM41 281V352H550V281H41ZM350 142Q350 119 335 104T296 89Q273 89 257 104T241 142Q241 165 257 180T296 195Q319 195 334 180T350 142Z"  />
<glyph unicode="&#xF8;" horiz-adv-x="532" d="M499 247Q499 192 481 145T432 62T356 6T261 -15Q238 -15 219 -12T170 3L140 -59L101 -39L132 23Q33 95 33 235Q33 290 50 338T97 420T169 475T262 495Q290 495 311 490T360 472L394 537L434 517L402 453Q453 413 476 363T499 247ZM409 223Q409 320 367 387L198 52Q217 37 232 32T275 27Q305 27 329 41T372 80T399 142T409 223ZM338 425Q318 440 302 445T260 451Q125 451 125 241Q125 187 133 152T165 85L338 425Z"  />
<glyph unicode="&#xF9;" horiz-adv-x="581" d="M404 -14V40Q387 33 373 28Q361 23 350 19T337 14Q316 5 290 -3T241 -11Q229 -11 214 -10T184 -5T156 5T135 19Q92 59 92 138V412L5 438V459L172 497V156Q172 126 180 104T205 68Q234 46 295 46Q321 46 350 49T404 58V412L317 438V459L484 497V73L565 46V26L404 -14ZM333 558L139 704H275L378 558H333Z"  />
<glyph unicode="&#xFA;" horiz-adv-x="581" d="M404 -14V40Q387 33 373 28Q361 23 350 19T337 14Q316 5 290 -3T241 -11Q229 -11 214 -10T184 -5T156 5T135 19Q92 59 92 138V412L5 438V459L172 497V156Q172 126 180 104T205 68Q234 46 295 46Q321 46 350 49T404 58V412L317 438V459L484 497V73L565 46V26L404 -14ZM257 558H212L315 704H451L257 558Z"  />
<glyph unicode="&#xFB;" horiz-adv-x="581" d="M404 -14V40Q387 33 373 28Q361 23 350 19T337 14Q316 5 290 -3T241 -11Q229 -11 214 -10T184 -5T156 5T135 19Q92 59 92 138V412L5 438V459L172 497V156Q172 126 180 104T205 68Q234 46 295 46Q321 46 350 49T404 58V412L317 438V459L484 497V73L565 46V26L404 -14ZM392 560L284 627L180 560H123L284 716L448 560H392Z"  />
<glyph unicode="&#xFC;" horiz-adv-x="581" d="M404 -14V40Q387 33 373 28Q361 23 350 19T337 14Q316 5 290 -3T241 -11Q229 -11 214 -10T184 -5T156 5T135 19Q92 59 92 138V412L5 438V459L172 497V156Q172 126 180 104T205 68Q234 46 295 46Q321 46 350 49T404 58V412L317 438V459L484 497V73L565 46V26L404 -14ZM421 630Q421 581 376 581Q333 581 333 624Q333 650 343 661T374 672Q421 672 421 630ZM250 627Q250 581 204 581Q161 581 161 623Q161 672 204 672Q250 672 250 627Z"  />
<glyph unicode="&#xFD;" horiz-adv-x="503" d="M460 426L243 -99Q217 -165 176 -193T67 -222Q52 -222 35 -221T7 -219V-125H62L97 -184Q126 -182 147 -161T191 -87L228 1L54 434L-10 458V482H214V458L142 434L246 159Q248 154 251 145T257 126T262 105T267 89L395 426L326 458V482H519V458L460 426ZM242 558H197L300 704H436L242 558Z"  />
<glyph unicode="&#xFE;" horiz-adv-x="570" d="M535 264Q535 205 514 155T455 68T365 11T251 -10Q230 -10 216 -10T186 -5V-167L296 -197V-221H19V-197L106 -167V628L19 653V675L186 715V434Q197 440 210 446T253 467Q285 481 307 486T341 492Q382 492 417 474T479 425T520 353T535 264ZM450 233Q450 272 439 308T405 371T350 414T276 430Q250 430 227 426T186 413V37Q203 35 217 35T247 34Q285 34 311 39T361 57Q404 81 427 128T450 233Z"  />
<glyph unicode="&#xFF;" horiz-adv-x="503" d="M460 426L243 -99Q217 -165 176 -193T67 -222Q52 -222 35 -221T7 -219V-125H62L97 -184Q126 -182 147 -161T191 -87L228 1L54 434L-10 458V482H214V458L142 434L246 159Q248 154 251 145T257 126T262 105T267 89L395 426L326 458V482H519V458L460 426ZM400 630Q400 581 355 581Q312 581 312 624Q312 650 322 661T353 672Q400 672 400 630ZM229 627Q229 581 183 581Q140 581 140 623Q140 672 183 672Q229 672 229 627Z"  />
<glyph unicode="&#x152;" horiz-adv-x="914" d="M857 0H430Q393 -10 342 -10Q273 -10 218 14T123 83T63 191T42 331Q42 404 62 468T123 582T224 659T364 688Q387 688 411 686T458 680H854V528H826L780 633H550V363H745L780 454H807V233H780L745 325H550V39H782L843 150H873L857 0ZM465 602Q441 622 416 629T354 637Q307 637 269 619T202 564T159 474T144 347Q144 318 147 284T158 215T182 148T222 90T280 49T360 34Q422 34 465 67V602Z"  />
<glyph unicode="&#x153;" horiz-adv-x="867" d="M499 262Q499 204 508 167T546 101Q574 71 608 58T699 44Q718 44 751 47T814 55L820 29L752 9Q713 -3 685 -6T631 -10Q601 -10 573 -3T521 17T479 49T450 93Q427 42 375 14T261 -15Q211 -15 170 2T98 52T52 130T35 229Q35 284 50 332T96 415T172 471T276 492Q307 492 336 485T390 463T433 430T460 387Q489 438 535 465T639 492Q699 492 743 464T808 384Q812 374 815 364T821 340T825 307T828 262H499ZM735 306Q734 351 729 375T708 419Q693 437 675 445T630 453Q574 453 541 411T500 289L735 306ZM412 224Q412 260 406 299T384 372T338 426T263 448Q197 448 161 395T124 241Q124 206 130 168T154 99T200 47T273 27Q314 27 341 45T383 92T405 156T412 224Z"  />
<glyph unicode="&#x160;" horiz-adv-x="511" d="M266 734L102 890H158L266 823L371 890H427L266 734ZM457 169Q457 127 442 95T397 40Q368 16 329 3T239 -11Q230 -11 217 -10T187 -7T154 -3T122 4Q106 8 97 10T80 14T68 17T54 21V167H88L138 44Q155 42 173 41T214 39Q253 39 276 43T319 60Q342 75 353 99T365 153Q365 177 358 195T339 227T311 253T274 278L173 344Q152 357 138 368T112 389T93 409T77 432Q67 450 63 471T58 516Q58 550 71 581T109 637T170 675T254 690Q272 690 297 688T356 679L437 663V524H401L353 639Q332 642 320 643T293 644Q270 644 243 641T192 628T152 597T136 542Q136 518 144 500T165 468T193 442T224 422L334 353Q362 335 384 318T423 279T448 231T457 169Z"  />
<glyph unicode="&#x161;" horiz-adv-x="408" d="M213 556L49 712H106L213 645L318 712H374L213 556ZM355 131Q355 99 344 73T312 29T263 0T201 -11Q184 -11 162 -8T112 2Q97 5 83 9T49 18V128H85L132 33Q149 30 157 29T179 28Q200 28 219 32T253 46T276 71T285 109Q285 151 234 182L137 239Q128 244 115 253T88 276T65 310T55 357Q55 420 94 456T205 492Q240 492 273 485T340 471V368H303L263 449Q250 451 241 452T215 453Q170 453 145 436T119 387Q119 364 134 346T186 308L265 266Q297 248 312 233T337 204Q347 189 351 170T355 131Z"  />
<glyph unicode="&#x178;" horiz-adv-x="574" d="M437 807Q437 760 392 760Q348 760 348 802Q348 851 390 851Q437 851 437 807ZM265 805Q265 760 219 760Q177 760 177 801Q177 851 219 851Q265 851 265 805ZM526 621L339 337V59L449 24V0H145V24L255 59V311L58 621L-19 656V680H231V656L155 619L308 374L458 620L385 656V680H603V656L526 621Z"  />
<glyph unicode="&#x17D;" horiz-adv-x="554" d="M291 734L127 890H183L291 823L396 890H452L291 734ZM506 0H30V30L411 637H134L89 517H55V680H521V654L137 48H427L494 167H525L506 0Z"  />
<glyph unicode="&#x17E;" horiz-adv-x="482" d="M255 556L91 712H148L255 645L360 712H416L255 556ZM40 0V31L330 438H140L91 349H60V482H433V454L141 44H356L411 151H438V0H40Z"  />
<glyph unicode="&#x192;" horiz-adv-x="540" d="M472 609L438 677Q409 675 390 668T352 645Q329 626 317 602T300 536L295 482H425L422 439H288L234 2Q226 -62 210 -101T163 -171Q134 -200 96 -214T15 -229Q-2 -229 -19 -226T-53 -220V-128H6L41 -195Q87 -190 115 -157T150 -67L207 439H107L113 482H212L214 496Q219 530 226 555T244 601T270 637T307 668Q339 690 374 701T451 713Q470 713 492 709T529 702V609H472Z"  />
<glyph unicode="&#x2C6;" horiz-adv-x="325" d="M269 560L161 627L57 560H0L161 716L325 560H269Z"  />
<glyph unicode="&#x2DC;" horiz-adv-x="341" d="M341 682Q327 664 308 639T272 600Q255 586 236 586Q228 586 221 587T194 600L119 639Q111 643 104 645T92 648Q82 648 63 634T18 596L0 613Q7 622 15 633T33 656T52 678T71 696Q79 704 88 707T106 710Q114 710 121 708T148 695L223 657Q231 653 238 650T250 647Q260 647 275 658T325 700L341 682H341Z"  />
<glyph unicode="&#x2013;" horiz-adv-x="483" d="M0 224V298H483V224H0Z"  />
<glyph unicode="&#x2014;" horiz-adv-x="966" d="M193 225V298H773V225H193Z"  />
<glyph unicode="&#x2018;" horiz-adv-x="267" d="M198 520Q198 495 183 481T140 467Q104 467 86 487T67 545Q67 599 92 634T177 687L188 659Q170 651 158 643T139 624T128 600T124 569H134Q198 569 198 520Z"  />
<glyph unicode="&#x2019;" horiz-adv-x="268" d="M200 609Q200 555 175 520T91 467L80 496Q98 503 110 511T129 529T140 553T145 586Q141 585 139 585T133 584Q68 584 68 635Q68 658 84 672T127 687Q200 687 200 609Z"  />
<glyph unicode="&#x201A;" horiz-adv-x="268" d="M200 36Q200 -18 176 -53T91 -107L80 -79Q116 -63 129 -44T145 12H133Q68 12 68 62Q68 85 84 100T127 115Q200 115 200 36Z"  />
<glyph unicode="&#x201C;" horiz-adv-x="441" d="M361 520Q361 495 346 481T303 467Q267 467 249 487T230 545Q230 599 255 634T340 687L352 659Q333 651 321 643T302 624T291 600T287 569H297Q361 569 361 520ZM189 520Q189 495 174 481T131 467Q95 467 77 487T58 545Q58 599 83 634T168 687L180 659Q161 651 149 643T130 624T119 600T115 569H126Q189 569 189 520Z"  />
<glyph unicode="&#x201D;" horiz-adv-x="441" d="M373 609Q373 555 349 520T264 467L252 496Q270 503 282 511T301 529T312 553T317 586Q309 584 305 584Q241 584 241 635Q241 658 256 672T298 687Q373 687 373 609ZM201 609Q201 555 176 520T92 467L81 496Q99 503 111 511T130 529T141 553T146 586Q142 585 140 585T134 584Q69 584 69 635Q69 658 85 672T127 687Q201 687 201 609Z"  />
<glyph unicode="&#x201E;" horiz-adv-x="441" d="M372 36Q372 -18 348 -53T263 -107L252 -79Q288 -63 301 -44T317 12H305Q240 12 240 62Q240 85 256 100T298 115Q372 115 372 36ZM200 36Q200 -18 176 -53T91 -107L80 -79Q116 -63 129 -44T145 12H133Q68 12 68 62Q68 85 84 100T127 115Q200 115 200 36Z"  />
<glyph unicode="&#x2020;" horiz-adv-x="544" d="M284 444Q304 405 314 373T324 311Q324 300 324 284T322 253L278 -223H265L223 253Q221 268 220 284T219 311Q219 340 229 372T260 444L64 424V499L250 483L223 681H322L293 483L480 499V424L284 444Z"  />
<glyph unicode="&#x2021;" horiz-adv-x="541" d="M290 -23L317 -223H225L253 -23L67 -42V36L257 14L225 230L257 444L67 424V499L253 483L225 681H317L290 483L475 499V427L288 444L317 230L288 14L475 32V-41L290 -23Z"  />
<glyph unicode="&#x2022;" horiz-adv-x="495" d="M427 348Q427 311 413 279T375 223T317 186T247 172Q210 172 178 185T121 223T82 279T68 348Q68 384 82 416T120 472T177 510T247 524Q284 524 317 510T374 472T413 416T427 348Z"  />
<glyph unicode="&#x2026;" horiz-adv-x="979" d="M875 42Q875 19 859 3T820 -14Q797 -14 781 2T765 42Q765 64 781 79T820 95Q843 95 859 80T875 42ZM545 42Q545 19 530 3T491 -14Q468 -14 452 2T436 42Q436 64 452 79T491 95Q514 95 529 80T545 42ZM214 42Q214 19 198 3T158 -14Q136 -14 120 2T104 42Q104 64 120 79T158 95Q182 95 198 80T214 42Z"  />
<glyph unicode="&#x2030;" horiz-adv-x="979" d="M949 142Q949 110 938 83T908 35T861 3T801 -9Q736 -9 696 31T656 135Q656 168 666 194T696 240T743 270T804 281Q870 281 909 244T949 142ZM324 547Q324 515 313 488T281 440T234 409T175 397Q143 397 116 407T70 436T41 481T30 539Q30 572 41 599T71 645T118 676T178 687Q244 687 284 649T324 547ZM112 0H56L528 683H584L112 0ZM591 141Q591 109 580 82T549 34T502 3T442 -9Q409 -9 383 1T337 30T308 75T297 133Q297 199 337 240T445 281Q511 281 551 243T591 141ZM893 139Q893 187 870 212T803 238Q759 238 735 212T711 135Q711 89 734 63T800 36Q843 36 868 63T893 139ZM267 544Q267 592 244 617T177 643Q133 643 110 617T86 540Q86 494 109 468T174 441Q218 441 242 468T267 544ZM535 138Q535 186 511 212T444 238Q400 238 377 211T353 134Q353 88 376 62T441 36Q484 36 509 63T535 138Z"  />
<glyph unicode="&#x2039;" horiz-adv-x="245" d="M157 54L43 248L157 443H198L82 248L198 54H157Z"  />
<glyph unicode="&#x203A;" horiz-adv-x="245" d="M90 54H49L165 250L49 443H90L204 250L90 54Z"  />
<glyph unicode="&#x20AC;" horiz-adv-x="532" d="M498 9Q474 1 436 -5T363 -11Q327 -11 300 -6T252 7T217 24T192 41Q147 75 124 130T96 255H34L42 297H94Q93 302 93 305T93 314Q93 328 94 343T97 374H34L42 416H102Q110 456 124 494T164 564Q203 615 258 636T371 657Q404 657 435 652T498 638V554H443L411 622H400Q387 622 367 621T324 612T276 588T231 541Q199 495 187 416H445L438 374H184Q183 360 183 347T182 320Q182 315 182 310T183 297H424L416 255H184Q187 222 195 185T220 119Q224 112 235 96T267 64T319 36T396 24H408L443 93H498V9H498Z"  />
<glyph unicode="&#x2122;" horiz-adv-x="751" d="M581 378V399L625 417V653L510 373H490L382 653V417L426 399V378H301V399L345 417V679L301 697V719H405L509 453L617 719H722V697L679 679V417L722 399V378H581ZM269 626L237 687H173V417L227 399V378H65V399L119 417V687H53L18 626H0V719H289V626H269Z"  />

</font>
</defs>
</svg>
